<?xml version="1.0" encoding="UTF-8"?>
<svg id="Layer_1" data-name="Layer 1" xmlns="http://www.w3.org/2000/svg" viewBox="0 0 512 512">
  <defs>
    <style>
      .cls-1 {
        fill: #fff;
      }
    </style>
  </defs>
  <circle class="cls-1" cx="256" cy="256" r="256"/>
  <path d="M455.75,368.56l-131.03-226.96c-.71-1.23-2.49-1.23-3.2,0l-63.92,110.71c-.71,1.23-2.49,1.23-3.2,0l-63.92-110.71c-.71-1.23-2.49-1.23-3.2,0L56.25,368.56c-.71,1.23.18,2.77,1.6,2.77h396.3c1.42,0,2.31-1.54,1.6-2.77ZM267.66,344.46h-48.56c-.66,0-1.27-.35-1.6-.92l-26.86-46.53c-.71-1.23-2.49-1.23-3.2,0l-26.86,46.53c-.33.57-.94.92-1.6.92h-48.56c-1.42,0-2.31-1.54-1.6-2.77l78.62-136.17c.71-1.23,2.49-1.23,3.2,0l78.62,136.17c.71,1.23-.18,2.77-1.6,2.77Z"/>
</svg>